HIERARCHY
ROOT hip
{
  OFFSET -0.239867 89.6833 0.190581
  CHANNELS 6 Xposition Yposition Zposition Zrotation Xrotation Yrotation
  JOINT abdomen
  {
    OFFSET 0 7.2397 0
    CHANNELS 6 Xposition Yposition Zposition Zrotation Xrotation Yrotation
    JOINT chest
    {
      OFFSET 0 16.546 0
      CHANNELS 6 Xposition Yposition Zposition Zrotation Xrotation Yrotation
      JOINT neck
      {
        OFFSET 0 34.2149 0
        CHANNELS 6 Xposition Yposition Zposition Zrotation Xrotation Yrotation
        JOINT head
        {
          OFFSET 0 6.2923 0
          CHANNELS 6 Xposition Yposition Zposition Zrotation Xrotation Yrotation
          End Site
          {
            OFFSET 0 21.2161 0
          }
        }
      }
      JOINT lCollar
      {
        OFFSET 4.0639 26.6115 -1.1234
        CHANNELS 6 Xposition Yposition Zposition Zrotation Xrotation Yrotation
        JOINT lShldr
        {
          OFFSET 14.1772 0 0
          CHANNELS 6 Xposition Yposition Zposition Zrotation Xrotation Yrotation
          JOINT lForeArm
          {
            OFFSET 26.1234 0 0
            CHANNELS 6 Xposition Yposition Zposition Zrotation Xrotation Yrotation
            JOINT lHand
            {
              OFFSET 27.7188 0 0
              CHANNELS 6 Xposition Yposition Zposition Zrotation Xrotation Yrotation
              JOINT lThumb1
              {
                OFFSET 2.2979 -0.4685 1.8313
                CHANNELS 6 Xposition Yposition Zposition Zrotation Xrotation Yrotation
                JOINT lThumb2
                {
                  OFFSET 5.2953 0 0
                  CHANNELS 6 Xposition Yposition Zposition Zrotation Xrotation Yrotation
                  JOINT lThumb3
                  {
                    OFFSET 3.0181 0 0
                    CHANNELS 6 Xposition Yposition Zposition Zrotation Xrotation Yrotation
                    End Site
                    {
                      OFFSET 2.6294 0 0
                    }
                  }
                }
              }
              JOINT lIndex1
              {
                OFFSET 9.3793 0.2991 2.5924
                CHANNELS 6 Xposition Yposition Zposition Zrotation Xrotation Yrotation
                JOINT lIndex2
                {
                  OFFSET 4.3461 0 0
                  CHANNELS 6 Xposition Yposition Zposition Zrotation Xrotation Yrotation
                  JOINT lIndex3
                  {
                    OFFSET 2.1666 0 0
                    CHANNELS 6 Xposition Yposition Zposition Zrotation Xrotation Yrotation
                    End Site
                    {
                      OFFSET 2.2048 0 0
                    }
                  }
                }
              }
              JOINT lMid1
              {
                OFFSET 9.4769 0.8376 0.2947
                CHANNELS 6 Xposition Yposition Zposition Zrotation Xrotation Yrotation
                JOINT lMid2
                {
                  OFFSET 4.772 0 0
                  CHANNELS 6 Xposition Yposition Zposition Zrotation Xrotation Yrotation
                  JOINT lMid3
                  {
                    OFFSET 2.8722 0 0
                    CHANNELS 6 Xposition Yposition Zposition Zrotation Xrotation Yrotation
                    End Site
                    {
                      OFFSET 2.0959 0 0
                    }
                  }
                }
              }
              JOINT lRing1
              {
                OFFSET 8.6586 1.0176 -1.7016
                CHANNELS 6 Xposition Yposition Zposition Zrotation Xrotation Yrotation
                JOINT lRing2
                {
                  OFFSET 4.5461 0 0
                  CHANNELS 6 Xposition Yposition Zposition Zrotation Xrotation Yrotation
                  JOINT lRing3
                  {
                    OFFSET 2.506 0 0
                    CHANNELS 6 Xposition Yposition Zposition Zrotation Xrotation Yrotation
                    End Site
                    {
                      OFFSET 2.2023 0 0
                    }
                  }
                }
              }
              JOINT lPinky1
              {
                OFFSET 7.6901 0.6618 -3.9096
                CHANNELS 6 Xposition Yposition Zposition Zrotation Xrotation Yrotation
                JOINT lPinky2
                {
                  OFFSET 3.2119 0 0
                  CHANNELS 6 Xposition Yposition Zposition Zrotation Xrotation Yrotation
                  JOINT lPinky3
                  {
                    OFFSET 1.924 0 0
                    CHANNELS 6 Xposition Yposition Zposition Zrotation Xrotation Yrotation
                    End Site
                    {
                      OFFSET 1.7829 0 0
                    }
                  }
                }
              }
            }
          }
        }
      }
      JOINT rCollar
      {
        OFFSET -4.0677 26.6109 -1.1234
        CHANNELS 6 Xposition Yposition Zposition Zrotation Xrotation Yrotation
        JOINT rShldr
        {
          OFFSET -14.1772 0 0
          CHANNELS 6 Xposition Yposition Zposition Zrotation Xrotation Yrotation
          JOINT rForeArm
          {
            OFFSET -26.1234 0 0
            CHANNELS 6 Xposition Yposition Zposition Zrotation Xrotation Yrotation
            JOINT rHand
            {
              OFFSET -27.7188 0 0
              CHANNELS 6 Xposition Yposition Zposition Zrotation Xrotation Yrotation
              JOINT rThumb1
              {
                OFFSET -2.2979 -0.4684 1.8313
                CHANNELS 6 Xposition Yposition Zposition Zrotation Xrotation Yrotation
                JOINT rThumb2
                {
                  OFFSET -5.2953 0 0
                  CHANNELS 6 Xposition Yposition Zposition Zrotation Xrotation Yrotation
                  JOINT rThumb3
                  {
                    OFFSET -3.0181 0 0
                    CHANNELS 6 Xposition Yposition Zposition Zrotation Xrotation Yrotation
                    End Site
                    {
                      OFFSET -2.6294 0 0
                    }
                  }
                }
              }
              JOINT rIndex1
              {
                OFFSET -9.3793 0.2991 2.5924
                CHANNELS 6 Xposition Yposition Zposition Zrotation Xrotation Yrotation
                JOINT rIndex2
                {
                  OFFSET -4.3461 0 0
                  CHANNELS 6 Xposition Yposition Zposition Zrotation Xrotation Yrotation
                  JOINT rIndex3
                  {
                    OFFSET -2.1666 0 0
                    CHANNELS 6 Xposition Yposition Zposition Zrotation Xrotation Yrotation
                    End Site
                    {
                      OFFSET -2.2048 0 0
                    }
                  }
                }
              }
              JOINT rMid1
              {
                OFFSET -9.4769 0.8376 0.2947
                CHANNELS 6 Xposition Yposition Zposition Zrotation Xrotation Yrotation
                JOINT rMid2
                {
                  OFFSET -4.772 0 0
                  CHANNELS 6 Xposition Yposition Zposition Zrotation Xrotation Yrotation
                  JOINT rMid3
                  {
                    OFFSET -2.8722 0 0
                    CHANNELS 6 Xposition Yposition Zposition Zrotation Xrotation Yrotation
                    End Site
                    {
                      OFFSET -2.0959 0 0
                    }
                  }
                }
              }
              JOINT rRing1
              {
                OFFSET -8.6586 1.0176 -1.7016
                CHANNELS 6 Xposition Yposition Zposition Zrotation Xrotation Yrotation
                JOINT rRing2
                {
                  OFFSET -4.5461 0 0
                  CHANNELS 6 Xposition Yposition Zposition Zrotation Xrotation Yrotation
                  JOINT rRing3
                  {
                    OFFSET -2.506 0 0
                    CHANNELS 6 Xposition Yposition Zposition Zrotation Xrotation Yrotation
                    End Site
                    {
                      OFFSET -2.2023 0 0
                    }
                  }
                }
              }
              JOINT rPinky1
              {
                OFFSET -7.6901 0.6618 -3.9096
                CHANNELS 6 Xposition Yposition Zposition Zrotation Xrotation Yrotation
                JOINT rPinky2
                {
                  OFFSET -3.2119 0 0
                  CHANNELS 6 Xposition Yposition Zposition Zrotation Xrotation Yrotation
                  JOINT rPinky3
                  {
                    OFFSET -1.924 0 0
                    CHANNELS 6 Xposition Yposition Zposition Zrotation Xrotation Yrotation
                    End Site
                    {
                      OFFSET -1.7829 0 0
                    }
                  }
                }
              }
            }
          }
        }
      }
    }
  }
  JOINT lThigh
  {
    OFFSET 8.7379 -0.0029 0.0005
    CHANNELS 6 Xposition Yposition Zposition Zrotation Xrotation Yrotation
    JOINT lShin
    {
      OFFSET 0 -46.6676 0
      CHANNELS 6 Xposition Yposition Zposition Zrotation Xrotation Yrotation
      JOINT lFoot
      {
        OFFSET 0 -40.1476 0
        CHANNELS 6 Xposition Yposition Zposition Zrotation Xrotation Yrotation
        JOINT lToes
        {
          OFFSET 0 -8.8846 14.2294
          CHANNELS 6 Xposition Yposition Zposition Zrotation Xrotation Yrotation
          End Site
          {
            OFFSET 0 0 6.296
          }
        }
      }
    }
  }
  JOINT rThigh
  {
    OFFSET -8.7379 0.0029 -0.0005
    CHANNELS 6 Xposition Yposition Zposition Zrotation Xrotation Yrotation
    JOINT rShin
    {
      OFFSET 0 -46.6676 0
      CHANNELS 6 Xposition Yposition Zposition Zrotation Xrotation Yrotation
      JOINT rFoot
      {
        OFFSET 0 -40.1476 0
        CHANNELS 6 Xposition Yposition Zposition Zrotation Xrotation Yrotation
        JOINT rToes
        {
          OFFSET 0 -8.8846 14.2294
          CHANNELS 6 Xposition Yposition Zposition Zrotation Xrotation Yrotation
          End Site
          {
            OFFSET 0 0 6.296
          }
        }
      }
    }
  }
}
MOTION
Frames:	4
Frame Time:	0.0333333
-0.239867 89.6833 0.190581 -3.11895 -3.31394 -43.3142 1.38778e-17 7.2397 -8.88178e-16 -1.8948 6.95982 8.00688 0 16.546 -8.88178e-16 -4.71873 15.5069 16.4787 -6.66134e-16 34.2149 -7.10543e-15 0.802915 26.8723 -1.42913 8.88178e-16 6.2923 1.42109e-14 -1.76281 -28.456 19.5385 4.0639 26.6115 -1.1234 -1.67989 -3.4278 4.16764 14.1772 0 0 -69.7125 -1.29682 -3.25429 26.1234 -7.10543e-15 0 3.36887 5.76335 -48.0304 27.7188 0 -7.10543e-15 14.0869 12.1194 -1.85424 2.2979 -0.4685 1.8313 61.4412 74.0274 -94.4786 5.2953 0 7.10543e-15 0.21736 3.02221 0.810016 3.0181 7.10543e-15 7.10543e-15 12.4883 -0.000103413 -1.635e-06 9.3793 0.2991 2.5924 0.516958 -1.66001 -8.48311 4.3461 0 7.10543e-15 -16.2579 -0.14968 2.41124 2.1666 0 0 -2.16841 -1.26682e-05 -6.05687e-06 9.4769 0.8376 0.2947 -7.7916 -4.32222 9.23114 4.772 0 0 -21.8669 -0.378716 1.6064 2.8722 0 0 3.95742 0.071102 0.399408 8.6586 1.0176 -1.7016 -24.6581 -2.57278 14.8859 4.5461 -1.42109e-14 0 -32.0642 0.677928 -1.50863 2.506 -7.10543e-15 3.55271e-15 6.7605 -1.78883e-06 -0.00010324 7.6901 0.6618 -3.9096 -23.6534 -14.8518 19.2863 3.2119 0 0 -39.5961 0.0857928 3.60677 1.924 1.77636e-15 0 4.4131 1.66394e-06 2.87018e-07 -4.0677 26.6109 -1.1234 5.14985 -2.73522 4.26975 -14.1772 0 0 61.2342 -12.0901 -21.3966 -26.1234 1.42109e-14 0 6.56357 -1.04087 42.221 -27.7188 0 -1.77636e-15 17.4124 5.72677 8.29609 -2.2979 -0.4684 1.8313 -37.3108 60.5987 62.8335 -5.2953 0 0 19.9722 1.4252 -7.5345 -3.0181 1.42109e-14 1.33227e-15 -12.4883 -0.000107576 0.000102404 -9.3793 0.2991 2.5924 -0.594659 -2.44683 0.278674 -4.3461 0 -3.55271e-15 16.7387 -0.208676 -2.79286 -2.1666 -3.55271e-15 3.55271e-15 2.1682 4.74618e-06 -4.0179e-06 -9.4769 0.8376 0.2947 7.28605 -5.19119 -1.96135 -4.772 3.55271e-15 0 30.5021 -0.808317 -2.46784 -2.8722 0 -3.55271e-15 -3.9575 0.0709972 -0.399402 -8.6586 1.0176 -1.7016 16.1838 2.39143 -7.76313 -4.5461 7.10543e-15 0 37.4893 1.12256 2.34202 -2.506 7.10543e-15 0 -6.7605 2.89716e-06 1.92518e-06 -7.6901 0.6618 -3.9096 16.309 -9.17293 -10.9207 -3.2119 7.10543e-15 0 41.6913 0.808898 -1.96052 -1.924 -7.10543e-15 0 -4.413 1.5028e-06 -3.34291e-06 8.7379 -0.0029 0.0005 14.8374 -23.1817 20.5078 0 -46.6676 7.10543e-15 7.41215 38.9921 -16.9815 0 -40.1476 -5.32907e-15 -7.89504 -10.3026 7.22353 0 -8.8846 14.2294 0.0001 4.96962e-17 -0 -8.7379 0.0029 -0.0005 -15.0211 -0.625115 -22.5897 0 -46.6676 -3.55271e-15 -4.68016 38.6318 -7.7109 -7.10543e-15 -40.1476 1.33227e-15 20.9741 -23.8179 -3.40678 -3.55271e-15 -8.8846 14.2294 -2.98177e-16 1.2424e-17 -7.95139e-16 
-0.269284 89.6906 0.136222 -3.14051 -3.33935 -43.2579 1.38778e-17 7.2397 0 -1.88226 6.95575 7.99183 -4.44089e-16 16.546 -8.88178e-16 -4.69077 15.5012 16.4458 0 34.2149 0 0.829056 27.0522 -1.52062 0 6.2923 0 -1.49002 -28.0404 19.2426 4.0639 26.6115 -1.1234 -1.66952 -3.43143 4.15126 14.1772 0 0 -69.6914 -1.36034 -3.17298 26.1234 7.10543e-15 3.55271e-15 3.35035 5.7477 -47.8953 27.7188 1.42109e-14 0 14.0144 12.1037 -1.92045 2.2979 -0.4685 1.8313 61.2822 74.0298 -94.2912 5.2953 0 7.10543e-15 0.207384 3.03012 0.789857 3.0181 0 7.10543e-15 12.4883 -0.000103413 -1.635e-06 9.3793 0.2991 2.5924 0.498213 -1.66279 -8.49362 4.3461 1.42109e-14 0 -16.2481 -0.149295 2.41008 2.1666 2.84217e-14 0 -2.16841 -1.26682e-05 -6.05687e-06 9.4769 0.8376 0.2947 -7.77191 -4.3197 9.22977 4.772 1.42109e-14 0 -21.8966 -0.379538 1.60825 2.8722 0 7.10543e-15 3.95742 0.071102 0.399408 8.6586 1.0176 -1.7016 -24.6474 -2.57272 14.8971 4.5461 0 0 -32.078 0.678281 -1.50916 2.506 0 0 6.7605 -1.78883e-06 -0.00010324 7.6901 0.6618 -3.9096 -23.6523 -14.8519 19.2779 3.2119 0 0 -39.5881 0.0862973 3.60579 1.924 3.55271e-15 0 4.4131 1.66394e-06 2.87018e-07 -4.0677 26.6109 -1.1234 5.21608 -2.73165 4.26421 -14.1772 0 -1.42109e-14 61.0154 -11.9288 -21.1317 -26.1234 1.42109e-14 7.10543e-15 6.75227 -0.97677 41.6554 -27.7188 -1.42109e-14 0 17.2333 5.80146 8.57521 -2.2979 -0.4684 1.8313 -37.3108 60.5987 62.8335 -5.2953 1.42109e-14 3.55271e-15 20.0325 1.5147 -7.53502 -3.0181 7.10543e-15 5.32907e-15 -12.4883 -0.000107576 0.000102404 -9.3793 0.2991 2.5924 -0.596984 -2.44554 0.277338 -4.3461 -7.10543e-15 0 16.8059 -0.211956 -2.79253 -2.1666 3.55271e-15 -3.55271e-15 2.1682 4.74618e-06 -4.0179e-06 -9.4769 0.8376 0.2947 7.25632 -5.18839 -1.96473 -4.772 0 -7.10543e-15 30.5049 -0.808382 -2.46848 -2.8722 -3.55271e-15 7.10543e-15 -3.9575 0.0709972 -0.399402 -8.6586 1.0176 -1.7016 16.1637 2.39378 -7.76757 -4.5461 -3.55271e-15 0 37.4817 1.12231 2.34177 -2.506 -7.10543e-15 -1.77636e-15 -6.7605 2.89716e-06 1.92518e-06 -7.6901 0.6618 -3.9096 16.2489 -9.164 -10.9415 -3.2119 3.55271e-15 0 41.6249 0.811383 -1.95421 -1.924 -7.10543e-15 1.77636e-15 -4.413 1.5028e-06 -3.34291e-06 8.7379 -0.0029 0.0005 14.8342 -23.1509 20.4821 -1.77636e-15 -46.6676 0 7.43639 38.9104 -17.0405 0 -40.1476 0 -7.93807 -10.2413 7.22414 3.55271e-15 -8.8846 14.2294 0.0001 4.96962e-17 3.18055e-15 -8.7379 0.0029 -0.0005 -14.955 -0.576568 -22.551 3.55271e-15 -46.6676 0 -4.65254 38.6165 -7.8247 -3.55271e-15 -40.1476 0 20.9705 -23.8962 -3.38943 3.55271e-15 -8.8846 14.2294 -9.93923e-17 -5.90142e-17 3.97569e-16 
-0.225549 89.6497 0.166745 -3.14408 -3.20842 -43.1345 0 7.2397 0 -1.86217 6.97427 7.97873 -4.44089e-16 16.546 -8.88178e-16 -4.67865 15.5394 16.4201 4.44089e-16 34.2149 0 0.937757 27.5138 -1.87446 0 6.2923 1.42109e-14 -1.45693 -26.5783 18.1174 4.0639 26.6115 -1.1234 -1.69509 -3.44999 4.03399 14.1772 -2.84217e-14 7.10543e-15 -69.5711 -1.34058 -3.22821 26.1234 -7.10543e-15 3.55271e-15 3.30653 5.75531 -47.8082 27.7188 -1.42109e-14 0 13.9557 12.037 -1.96828 2.2979 -0.4685 1.8313 60.9064 73.9434 -93.82 5.2953 7.10543e-15 7.10543e-15 0.158302 2.99493 0.756873 3.0181 0 -7.10543e-15 12.4883 -0.000103413 -1.635e-06 9.3793 0.2991 2.5924 0.482982 -1.6681 -8.50467 4.3461 0 0 -16.2431 -0.149104 2.40957 2.1666 0 -7.10543e-15 -2.16841 -1.26682e-05 -6.05687e-06 9.4769 0.8376 0.2947 -7.75984 -4.31708 9.23129 4.772 1.42109e-14 0 -21.9139 -0.380017 1.60933 2.8722 0 0 3.95742 0.071102 0.399408 8.6586 1.0176 -1.7016 -24.643 -2.5716 14.8993 4.5461 1.42109e-14 3.55271e-15 -32.0975 0.678787 -1.5099 2.506 3.55271e-15 0 6.7605 -1.78883e-06 -0.00010324 7.6901 0.6618 -3.9096 -23.6463 -14.8508 19.2679 3.2119 0 0 -39.5861 0.0864268 3.60557 1.924 -1.77636e-15 -3.55271e-15 4.4131 1.66394e-06 2.87018e-07 -4.0677 26.6109 -1.1234 5.26203 -2.73412 4.31207 -14.1772 2.84217e-14 -3.55271e-15 61.1325 -11.6804 -20.8381 -26.1234 0 0 6.85054 -0.729466 41.6784 -27.7188 0 1.77636e-15 16.5972 5.8815 8.81827 -2.2979 -0.4684 1.8313 -37.3108 60.5987 62.8335 -5.2953 0 -5.32907e-15 20.0107 1.62888 -7.529 -3.0181 0 5.32907e-15 -12.4883 -0.000107576 0.000102404 -9.3793 0.2991 2.5924 -0.580284 -2.44676 0.277269 -4.3461 0 7.10543e-15 16.8563 -0.214418 -2.79229 -2.1666 0 0 2.1682 4.74618e-06 -4.0179e-06 -9.4769 0.8376 0.2947 7.27003 -5.19064 -1.96136 -4.772 -7.10543e-15 0 30.5366 -0.809807 -2.47041 -2.8722 -3.55271e-15 3.55271e-15 -3.9575 0.0709972 -0.399402 -8.6586 1.0176 -1.7016 16.1855 2.39186 -7.7539 -4.5461 0 -1.77636e-15 37.4893 1.12255 2.34203 -2.506 -7.10543e-15 -1.77636e-15 -6.7605 2.89716e-06 1.92518e-06 -7.6901 0.6618 -3.9096 16.2274 -9.16058 -10.944 -3.2119 0 -5.32907e-15 41.6032 0.811993 -1.95391 -1.924 0 -1.77636e-15 -4.413 1.5028e-06 -3.34291e-06 8.7379 -0.0029 0.0005 14.8581 -23.3993 20.3854 0 -46.6676 0 7.5553 39.1198 -17.1125 3.55271e-15 -40.1476 1.77636e-15 -7.92253 -10.3439 7.2204 -3.55271e-15 -8.8846 14.2294 0.0001 0 -3.18055e-15 -8.7379 0.0029 -0.0005 -14.8642 -0.640067 -22.5243 0 -46.6676 -3.55271e-15 -4.62178 38.621 -7.974 0 -40.1476 -3.10862e-15 21.0173 -23.9019 -3.38422 0 -8.8846 14.2294 -0 -9.31803e-18 -0 
-0.0612059 89.5258 0.332026 -3.1236 -2.81436 -42.897 -1.11022e-16 7.2397 8.88178e-16 -1.82648 7.03057 7.96836 0 16.546 0 -4.68794 15.6515 16.4049 4.44089e-16 34.2149 0 1.2039 28.4641 -2.69067 0 6.2923 0 -1.6133 -23.2322 15.6891 4.0639 26.6115 -1.1234 -1.78212 -3.49356 3.74743 14.1772 -2.84217e-14 0 -69.2844 -1.17995 -3.51974 26.1234 -7.10543e-15 0 3.22018 5.80165 -47.7917 27.7188 0 0 13.9212 11.8882 -1.98758 2.2979 -0.4685 1.8313 60.1693 73.7012 -92.8709 5.2953 1.42109e-14 -7.10543e-15 0.0427694 2.88556 0.701419 3.0181 7.10543e-15 -1.42109e-14 12.4883 -0.000103413 -1.635e-06 9.3793 0.2991 2.5924 0.548585 -1.68367 -8.53292 4.3461 0 7.10543e-15 -16.1445 -0.144962 2.41292 2.1666 0 0 -2.16841 -1.26682e-05 -6.05687e-06 9.4769 0.8376 0.2947 -7.72078 -4.30786 9.23861 4.772 1.42109e-14 7.10543e-15 -21.8071 -0.376788 1.60563 2.8722 0 -7.10543e-15 3.95742 0.071102 0.399408 8.6586 1.0176 -1.7016 -24.6087 -2.55901 14.8902 4.5461 0 -3.55271e-15 -32.0236 0.676748 -1.50961 2.506 0 0 6.7605 -1.78883e-06 -0.00010324 7.6901 0.6618 -3.9096 -23.594 -14.8358 19.2577 3.2119 -7.10543e-15 0 -39.4942 0.0931766 3.58541 1.924 -5.32907e-15 3.55271e-15 4.4131 1.66394e-06 2.87018e-07 -4.0677 26.6109 -1.1234 5.2801 -2.74651 4.451 -14.1772 0 -3.55271e-15 61.8107 -11.2739 -20.4833 -26.1234 -1.42109e-14 0 6.78766 -0.175675 42.7142 -27.7188 -7.10543e-15 -1.77636e-15 15.1767 5.96712 8.99465 -2.2979 -0.4684 1.8313 -37.3108 60.5987 62.8335 -5.2953 0 -7.10543e-15 19.8488 1.78301 -7.51184 -3.0181 0 7.10543e-15 -12.4883 -0.000107576 0.000102404 -9.3793 0.2991 2.5924 -0.528851 -2.45247 0.279548 -4.3461 0 0 16.8797 -0.215563 -2.79217 -2.1666 3.55271e-15 0 2.1682 4.74618e-06 -4.0179e-06 -9.4769 0.8376 0.2947 7.35962 -5.20155 -1.94631 -4.772 3.55271e-15 0 30.6178 -0.813522 -2.47456 -2.8722 0 0 -3.9575 0.0709972 -0.399402 -8.6586 1.0176 -1.7016 16.2795 2.38256 -7.70905 -4.5461 1.06581e-14 3.55271e-15 37.5239 1.12369 2.34325 -2.506 0 0 -6.7605 2.89716e-06 1.92518e-06 -7.6901 0.6618 -3.9096 16.2725 -9.16648 -10.9151 -3.2119 0 0 41.6577 0.809401 -1.9638 -1.924 7.10543e-15 -1.77636e-15 -4.413 1.5028e-06 -3.34291e-06 8.7379 -0.0029 0.0005 14.9315 -24.121 20.1728 1.77636e-15 -46.6676 7.10543e-15 7.83763 39.8214 -17.2164 3.55271e-15 -40.1476 -1.77636e-15 -7.81189 -10.7196 7.20923 0 -8.8846 14.2294 0.0001 0 -0 -8.7379 0.0029 -0.0005 -14.7238 -0.891209 -22.5168 3.55271e-15 -46.6676 3.55271e-15 -4.58449 38.6625 -8.18469 0 -40.1476 -4.44089e-16 21.1537 -23.7999 -3.39591 0 -8.8846 14.2294 9.93923e-17 1.2424e-17 3.97569e-16 
